<svg width="14" height="16" viewBox="0 0 14 16" fill="none" xmlns="http://www.w3.org/2000/svg">
<path d="M12.2576 5.34161H11.1505V4.2221C11.1505 1.89285 9.25764 0 6.92835 0C4.59906 0 2.70624 1.89281 2.70624 4.2221V5.34161H1.59907C0.717033 5.34161 0 6.05787 0 6.94222V14.4009C0 15.283 0.716264 16 1.59907 16H12.2575C13.1395 16 13.8565 15.2837 13.8565 14.4009V6.94222C13.8565 6.05787 13.1397 5.34161 12.2576 5.34161ZM3.77275 4.2221C3.77275 2.48117 5.18833 1.06643 6.92843 1.06643C8.66936 1.06643 10.0841 2.482 10.0841 4.2221V5.34161H3.77256L3.77275 4.2221ZM12.7905 14.4009C12.7905 14.6946 12.5515 14.9336 12.2578 14.9336H1.59939C1.30563 14.9336 1.06663 14.6946 1.06663 14.4009V6.94216C1.06663 6.64841 1.30563 6.40709 1.59939 6.40709H12.2578C12.5515 6.40709 12.7905 6.6461 12.7905 6.94216V14.4009Z" fill="#F24E1E"/>
<path d="M8.23183 10.1142C8.23183 9.30929 7.50169 8.67551 6.66823 8.83742C6.14703 8.93842 5.73453 9.36633 5.64587 9.88907C5.55104 10.4535 5.82166 10.9646 6.25806 11.2291L5.7492 12.2792C5.69214 12.3956 5.7785 12.5321 5.90725 12.5321H7.94814C8.07844 12.5321 8.16324 12.3956 8.10619 12.2792L7.59734 11.2291C7.97668 11.0001 8.23183 10.5876 8.23183 10.1142Z" fill="#F24E1E"/>
</svg>
