<svg width="12" height="20" viewBox="0 0 12 20" fill="none" xmlns="http://www.w3.org/2000/svg">
<path d="M3.9165 10.0416L11.2915 2.66661C11.5415 2.41661 11.6596 2.12493 11.6457 1.79157C11.6318 1.45821 11.4999 1.16661 11.2499 0.916613C10.9999 0.666613 10.7012 0.541573 10.354 0.541573C10.0068 0.541573 9.70818 0.666613 9.45818 0.916613L1.20818 9.16661C1.0693 9.30549 0.972106 9.44437 0.916506 9.58325C0.860986 9.72213 0.833223 9.87493 0.833223 10.0416C0.833223 10.2082 0.860986 10.361 0.916506 10.4999C0.972106 10.6388 1.0693 10.7777 1.20818 10.9166L9.49986 19.2082C9.74986 19.4582 10.0485 19.5833 10.3957 19.5833C10.7429 19.5833 11.0415 19.4582 11.2915 19.2082C11.5415 18.9582 11.6665 18.6597 11.6665 18.3124C11.6665 17.9652 11.5415 17.6666 11.2915 17.4166L3.9165 10.0416Z" fill="#1A1A1A"/>
</svg>
