<svg width="12" height="20" viewBox="0 0 12 20" fill="none" xmlns="http://www.w3.org/2000/svg">
<path d="M3.91699 10.0418L11.292 2.66686C11.542 2.41686 11.6601 2.12518 11.6462 1.79182C11.6323 1.45846 11.5004 1.16686 11.2504 0.916856C11.0004 0.666856 10.7017 0.541816 10.3545 0.541816C10.0073 0.541816 9.70867 0.666856 9.45867 0.916856L1.20867 9.16686C1.06979 9.30574 0.972594 9.44462 0.916994 9.5835C0.861474 9.72238 0.833712 9.87518 0.833712 10.0418C0.833712 10.2085 0.861474 10.3613 0.916994 10.5001C0.972594 10.639 1.06979 10.7779 1.20867 10.9169L9.50035 19.2085C9.75035 19.4585 10.049 19.5835 10.3962 19.5835C10.7434 19.5835 11.042 19.4585 11.292 19.2085C11.542 18.9585 11.667 18.6599 11.667 18.3126C11.667 17.9654 11.542 17.6669 11.292 17.4169L3.91699 10.0418Z" fill="white"/>
</svg>
