<svg width="22" height="20" viewBox="0 0 22 20" fill="none" xmlns="http://www.w3.org/2000/svg">
<path d="M19.984 0H5.7123L0 5.71231V15.6318C0 16.5929 0.779775 17.3727 1.74089 17.3727H10.4454L10.7899 16.5748C10.5542 16.4841 10.3366 16.339 10.2096 16.1214C10.1189 15.9763 10.0464 15.8131 10.0464 15.6318H1.74089V7.12678H5.31335C6.27447 7.12678 7.05424 6.34701 7.05424 5.38589V1.72276H20.0021V15.6318H17.6628C17.6447 15.8131 17.5721 15.9945 17.4633 16.1395C17.3364 16.3209 17.1369 16.4659 16.9374 16.5566L17.3001 17.3727H20.0021C20.9633 17.3727 21.743 16.5929 21.743 15.6318V1.72276C21.7249 0.761641 20.9451 0 19.984 0ZM5.31335 5.38589H2.77455L5.29522 2.86522V5.38589H5.31335Z" fill="white"/>
<path d="M10.9538 15.6681C10.9719 15.7043 11.0626 15.795 11.2076 15.7769C11.8242 15.7406 12.3864 16.1577 12.5677 16.7743C12.604 16.9012 12.6946 16.9556 12.749 16.9737C12.7853 16.9919 12.9123 17.01 13.0029 16.9193C13.2568 16.7199 13.547 16.6292 13.8552 16.6292C14.1454 16.6292 14.4537 16.7199 14.6894 16.9193L14.7076 16.9375C14.7982 17.01 14.8889 17.01 14.9433 16.9919C15.034 16.9556 15.1065 16.9012 15.1246 16.7924C15.2697 16.1758 15.85 15.7406 16.5028 15.7769C16.6298 15.7769 16.7205 15.6862 16.7386 15.6499C16.7749 15.6137 16.8111 15.523 16.7749 15.4142V15.3961C16.5573 14.7976 16.7749 14.1448 17.3189 13.7821C17.4277 13.7096 17.4458 13.6008 17.4458 13.5464C17.4458 13.4919 17.4277 13.3831 17.3189 13.3106C16.7749 12.9479 16.5754 12.3132 16.7749 11.6967C16.8293 11.5697 16.793 11.479 16.7567 11.4246C16.7386 11.3884 16.6661 11.2977 16.5028 11.3158C15.8863 11.3521 15.3241 10.935 15.1428 10.3184C15.1065 10.1915 15.0158 10.1371 14.9614 10.119C14.9252 10.1008 14.7982 10.0827 14.7076 10.1734C14.1998 10.5723 13.4926 10.5723 13.0029 10.1552C12.9123 10.0827 12.8216 10.0827 12.7672 10.1008C12.6765 10.1371 12.604 10.1915 12.5858 10.3003C12.4408 10.9169 11.8605 11.3521 11.2076 11.3158C11.0807 11.3158 10.99 11.4065 10.9719 11.4428C10.9356 11.479 10.8993 11.5697 10.9356 11.6785V11.6967C11.1532 12.2951 10.9356 12.9479 10.3916 13.3106C10.2828 13.3831 10.2646 13.4919 10.2646 13.5464C10.2646 13.6008 10.2828 13.7096 10.3916 13.7821C10.9356 14.1448 11.1351 14.7795 10.9356 15.3961C10.8812 15.523 10.9175 15.6137 10.9538 15.6681Z" fill="white"/>
<path d="M13.2742 17.2639C12.9659 17.4996 12.5126 17.4634 12.2768 17.1551C12.2043 17.0644 12.168 16.9556 12.1136 16.8468C12.0592 16.7199 12.0048 16.6292 11.9323 16.5204C11.896 16.466 11.8598 16.4297 11.8235 16.3934C11.8235 16.3934 11.8235 16.4116 11.8054 16.4116C11.4971 17.1007 11.1344 17.9711 10.9168 18.4607C10.8442 18.624 10.7717 18.769 10.7173 18.9322C10.6629 19.0592 10.7173 19.1136 10.8442 19.0954C10.8986 19.0954 10.953 19.0773 10.9893 19.0592C11.3339 18.9685 11.6784 18.8597 12.023 18.769C12.1862 19.0954 12.3494 19.4037 12.5126 19.7301C12.5307 19.7845 12.567 19.8208 12.5851 19.8752C12.6577 19.984 12.7302 19.984 12.7846 19.8752C12.8571 19.712 12.9297 19.5669 13.0022 19.4037C13.2561 18.8416 13.7095 17.8079 14.0177 17.1007C13.9452 17.0825 13.8908 17.0825 13.8183 17.0825C13.6369 17.0644 13.4374 17.1369 13.2742 17.2639Z" fill="white"/>
<path d="M16.793 18.4788C16.5754 17.971 16.1945 17.1006 15.8863 16.4115C15.8318 16.4659 15.7956 16.5203 15.7412 16.5928C15.5236 16.883 15.451 17.3001 15.0702 17.427C14.9977 17.4452 14.9251 17.4633 14.8526 17.4633C14.6894 17.4633 14.5443 17.4089 14.4174 17.3001H14.3992C14.3811 17.3001 14.3811 17.2819 14.363 17.2819L14.0547 18.0255C14.2904 18.5513 14.5262 19.0954 14.6713 19.4399C14.7438 19.6031 14.7982 19.7482 14.8707 19.9114C14.9251 20.0202 14.9977 20.0384 15.0702 19.9114C15.1065 19.8752 15.1246 19.8207 15.1427 19.7663C15.306 19.4581 15.4692 19.1316 15.6324 18.8052C15.9769 18.8959 16.3215 19.0047 16.666 19.0954C16.7204 19.1135 16.7748 19.1316 16.8111 19.1316C16.938 19.1498 16.9924 19.0954 16.938 18.9684C16.938 18.7871 16.8655 18.6239 16.793 18.4788Z" fill="white"/>
</svg>
