<svg width="8" height="14" viewBox="0 0 8 14" fill="none" xmlns="http://www.w3.org/2000/svg">
<path d="M5.99551 6.98645L1.20173 2.19272C1.03923 2.03022 0.962479 1.84063 0.971527 1.62395C0.980575 1.40726 1.06632 1.21772 1.22882 1.05522C1.39132 0.892722 1.58544 0.811446 1.81112 0.811446C2.0368 0.811446 2.23092 0.892722 2.39342 1.05522L7.75592 6.41772C7.84619 6.50799 7.90937 6.59827 7.94551 6.68854C7.98159 6.77881 7.99964 6.87813 7.99964 6.98645C7.99964 7.09476 7.98159 7.19408 7.94551 7.28435C7.90937 7.37463 7.84619 7.4649 7.75592 7.55522L2.36632 12.9448C2.20382 13.1073 2.00971 13.1885 1.78403 13.1885C1.55835 13.1885 1.36423 13.1073 1.20173 12.9448C1.03923 12.7823 0.958008 12.5882 0.958008 12.3625C0.958008 12.1368 1.03923 11.9427 1.20173 11.7802L5.99551 6.98645Z" fill="white"/>
</svg>
