<svg width="12" height="20" viewBox="0 0 12 20" fill="none" xmlns="http://www.w3.org/2000/svg">
<path d="M8.0835 10.0418L0.708456 2.66686C0.458456 2.41686 0.340375 2.12518 0.354295 1.79182C0.368215 1.45846 0.500136 1.16686 0.750136 0.916856C1.00014 0.666856 1.29878 0.541816 1.64598 0.541816C1.99318 0.541816 2.29182 0.666856 2.54182 0.916856L10.7918 9.16686C10.9307 9.30574 11.0279 9.44462 11.0835 9.5835C11.139 9.72238 11.1668 9.87518 11.1668 10.0418C11.1668 10.2085 11.139 10.3613 11.0835 10.5001C11.0279 10.639 10.9307 10.7779 10.7918 10.9169L2.50014 19.2085C2.25014 19.4585 1.9515 19.5835 1.6043 19.5835C1.2571 19.5835 0.958456 19.4585 0.708456 19.2085C0.458456 18.9585 0.333496 18.6599 0.333496 18.3126C0.333496 17.9654 0.458456 17.6669 0.708456 17.4169L8.0835 10.0418Z" fill="white"/>
</svg>
