<svg width="12" height="20" viewBox="0 0 12 20" fill="none" xmlns="http://www.w3.org/2000/svg">
<path d="M8.0835 10.0416L0.708456 2.66661C0.458456 2.41661 0.340375 2.12493 0.354295 1.79157C0.368215 1.45821 0.500136 1.16661 0.750136 0.916613C1.00014 0.666613 1.29878 0.541573 1.64598 0.541573C1.99318 0.541573 2.29182 0.666613 2.54182 0.916613L10.7918 9.16661C10.9307 9.30549 11.0279 9.44437 11.0835 9.58325C11.139 9.72213 11.1668 9.87493 11.1668 10.0416C11.1668 10.2082 11.139 10.361 11.0835 10.4999C11.0279 10.6388 10.9307 10.7777 10.7918 10.9166L2.50014 19.2082C2.25014 19.4582 1.9515 19.5833 1.6043 19.5833C1.2571 19.5833 0.958456 19.4582 0.708456 19.2082C0.458456 18.9582 0.333496 18.6597 0.333496 18.3124C0.333496 17.9652 0.458456 17.6666 0.708456 17.4166L8.0835 10.0416Z" fill="#1A1A1A"/>
</svg>
