<svg width="24" height="24" viewBox="0 0 24 24" fill="none" xmlns="http://www.w3.org/2000/svg">
<path fill-rule="evenodd" clip-rule="evenodd" d="M19.5799 12.9667L20.2133 12.6158C21.0067 12.1748 21.9694 12.1928 22.7467 12.6625C23.5233 13.1323 24 13.9837 24 14.9035V15.2041C24 16.158 23.4879 17.0364 22.665 17.4918L14.6731 21.9286C14.3025 22.1356 13.8864 22.2436 13.4636 22.2436H8.46409C8.24932 22.2436 7.25885 22.3786 7.13925 22.3948L5.11114 23.6332C4.46767 24.0256 3.68692 24.1084 2.9786 23.8564C2.27028 23.6044 1.70851 23.0464 1.44489 22.3318L0.161316 18.8454C-0.29265 17.6142 0.240482 16.2318 1.39687 15.6433L4.73804 13.9423C4.90564 13.8577 5.08167 13.7929 5.2619 13.7461V9.42806C5.2619 8.74768 5.52805 8.09252 6.00223 7.61013C6.47557 7.12775 7.1182 6.85776 7.78862 6.85776H8.63085C8.92058 6.85776 9.20526 6.90816 9.47309 7.00536V6.00099C9.47309 4.58084 10.6042 3.42888 11.9998 3.42888H12.842C13.1377 3.42888 13.4207 3.48107 13.6843 3.57466V2.57211C13.6843 1.15196 14.8154 0 16.211 0H17.0532C18.4488 0 19.5799 1.15196 19.5799 2.57211V12.9667ZM5.49183 15.4759L2.14983 17.1768C1.76493 17.373 1.58722 17.8338 1.73798 18.2442L3.0224 21.7288C3.10999 21.9682 3.29781 22.1536 3.53363 22.2382C3.76946 22.321 4.02972 22.294 4.24449 22.1626L6.32143 20.8955C6.45451 20.8145 6.71392 20.7209 7.03566 20.6633C7.53089 20.5733 8.22574 20.5283 8.46409 20.5283H13.4636C13.6043 20.5283 13.7432 20.4923 13.867 20.4239L21.859 15.987C22.1403 15.8304 22.3155 15.5317 22.3155 15.2059V14.9035C22.3155 14.5885 22.1521 14.2969 21.8868 14.1367C21.6207 13.9765 21.2914 13.9693 21.0202 14.1205L14.2966 17.8518C14.2393 17.8842 14.1804 17.9076 14.1197 17.9256C13.6573 18.4692 12.9734 18.8148 12.2104 18.8148H7.99749C7.53258 18.8148 7.15525 18.4296 7.15525 17.958C7.15525 17.4846 7.53258 17.0994 7.99749 17.0994H12.2104C12.6744 17.0994 13.0509 16.7178 13.0509 16.2444V16.2408C13.0509 15.7693 12.6744 15.3859 12.2104 15.3859H5.86832C5.73777 15.3859 5.6089 15.4165 5.49183 15.4759ZM17.8955 13.9027V2.57211C17.8955 2.09873 17.5181 1.71535 17.0532 1.71535H16.211C15.7461 1.71535 15.3688 2.09873 15.3688 2.57211V15.3049L17.8955 13.9027ZM13.6843 14.1547V6.00099C13.6843 5.52761 13.307 5.14241 12.842 5.14241H11.9998C11.5349 5.14241 11.1576 5.52761 11.1576 6.00099V13.6723H12.2104C12.7603 13.6723 13.2699 13.8505 13.6843 14.1547ZM9.47309 13.6723V9.42806C9.47309 9.20127 9.38466 8.98348 9.22632 8.82329C9.06882 8.66129 8.85405 8.57129 8.63085 8.57129H7.78862C7.56542 8.57129 7.35065 8.66129 7.19315 8.82329C7.03481 8.98348 6.94638 9.20127 6.94638 9.42806V13.6723H9.47309Z" fill="#007ACC"/>
</svg>
