<svg width="20" height="20" viewBox="0 0 20 20" fill="none" xmlns="http://www.w3.org/2000/svg">
<path d="M17.0493 3.34862H13.8671V2.43119C13.8671 1.07798 12.8555 0 11.6332 0H8.40875C7.18642 0 6.17484 1.07798 6.17484 2.43119V3.34862H2.97151C1.3277 3.34862 0 4.79358 0 6.58257V16.7661C0 18.555 1.3277 20 2.97151 20H17.0282C18.6721 20 19.9998 18.555 19.9998 16.7661V6.58257C20.0208 4.79358 18.6931 3.34862 17.0493 3.34862ZM7.77651 2.40826C7.77651 2.04128 8.05048 1.72018 8.40875 1.72018H11.6332C11.9703 1.72018 12.2654 2.01835 12.2654 2.40826V3.32569H7.77651V2.40826ZM18.4192 16.7661C18.4192 17.5917 17.808 18.2569 17.0493 18.2569H2.97151C2.21283 18.2569 1.60167 17.5917 1.60167 16.7661V6.58257C1.60167 5.75688 2.21283 5.09174 2.97151 5.09174H17.0282C17.7869 5.09174 18.3981 5.75688 18.3981 6.58257V16.7661H18.4192Z" fill="white"/>
</svg>
