<svg width="24" height="24" viewBox="0 0 24 24" fill="none" xmlns="http://www.w3.org/2000/svg">
<path fill-rule="evenodd" clip-rule="evenodd" d="M9.13212 0.00603277C12.0579 0.00289064 14.8067 1.40424 16.5235 3.77235L15.3754 4.92024C15.1051 4.52223 14.7982 4.15043 14.4588 3.81005C12.6821 2.03687 10.1399 1.26498 7.67803 1.75304C5.21524 2.2411 3.15879 3.92421 2.19417 6.2398C1.22936 8.55654 1.48289 11.2011 2.86983 13.2928C4.25784 15.3833 6.59609 16.6454 9.10592 16.6569C11.6159 16.6684 13.9666 15.4284 15.3723 13.3493C16.7792 11.2714 17.0568 8.62904 16.1129 6.30388L17.3228 5.09419C18.5003 7.48426 18.5747 10.2682 17.5282 12.718C16.4806 15.1677 14.416 17.0372 11.8756 17.8375C9.33425 18.6377 6.56982 18.2889 4.30805 16.8823C2.04534 15.4747 0.510723 13.1506 0.106318 10.5176C-0.299079 7.8846 0.466689 5.2064 2.20142 3.18503C3.93722 1.16362 6.46805 0 9.13208 0L9.13212 0.00603277ZM11.1162 8.99135L11.1172 8.99031C10.759 8.99031 10.4185 9.14322 10.1807 9.41134L7.58173 7.91259H7.58278C7.62468 7.78481 7.64564 7.65075 7.64668 7.51563C7.64668 7.12077 7.45917 6.74896 7.14281 6.51436C6.8254 6.2787 6.41582 6.20644 6.03765 6.32059C5.65947 6.43371 5.35673 6.71964 5.22264 7.09145C5.08751 7.46221 5.13674 7.87487 5.35359 8.20477L2.40369 11.1541C2.45711 11.3311 2.51892 11.505 2.58596 11.6904L5.70776 8.55869C5.91203 8.69485 6.15191 8.76607 6.39704 8.76502C6.7553 8.76607 7.09577 8.61211 7.33356 8.34399L9.93148 9.85636C9.88853 9.98414 9.86653 10.1182 9.86758 10.2533C9.86758 10.9435 10.427 11.5028 11.1173 11.5028C11.8076 11.5028 12.3671 10.9435 12.3671 10.2533C12.366 10.0082 12.2948 9.76944 12.1607 9.56416L19.8194 1.89023V3.39423C19.8331 3.52306 19.941 3.62046 20.0698 3.62046C20.1997 3.62046 20.3076 3.52306 20.3212 3.39423V1.27649C20.3212 1.13929 20.2091 1.02722 20.0719 1.02722H17.9632C17.8259 1.02722 17.7139 1.13929 17.7139 1.27649C17.7139 1.4137 17.8259 1.52577 17.9632 1.52577H19.4675L11.8068 9.19648C11.6026 9.06137 11.3627 8.9891 11.1176 8.99015L11.1162 8.99135ZM17.2683 14.2962C16.5068 15.4933 15.4917 16.5082 14.2943 17.2696L14.6703 17.6456C14.9259 17.898 15.3366 17.898 15.5922 17.6456L17.6443 15.5939C17.8968 15.3383 17.8968 14.9277 17.6443 14.6722L17.2683 14.2962ZM18.9716 16.8517L18.0247 15.9164L17.9953 15.9489L15.9463 17.9975L15.9139 18.0268L16.8504 18.9726L18.9716 16.8517ZM19.3226 17.2026L17.2013 19.313L21.4524 23.5632C22.0348 24.1456 22.9797 24.1456 23.5632 23.5632C24.1456 22.9799 24.1456 22.0352 23.5632 21.4528L19.3226 17.2026Z" fill="#007ACC"/>
</svg>
