<svg width="30" height="31" viewBox="0 0 30 31" fill="none" xmlns="http://www.w3.org/2000/svg">
<path d="M6.25 26.75C5.5625 26.75 4.97396 26.5052 4.48438 26.0156C3.99479 25.526 3.75 24.9375 3.75 24.25V6.75C3.75 6.0625 3.99479 5.47396 4.48438 4.98438C4.97396 4.49479 5.5625 4.25 6.25 4.25H15V6.75H6.25V24.25H23.75V15.5H26.25V24.25C26.25 24.9375 26.0052 25.526 25.5156 26.0156C25.026 26.5052 24.4375 26.75 23.75 26.75H6.25ZM12.125 20.125L10.375 18.375L22 6.75H17.5V4.25H26.25V13H23.75V8.5L12.125 20.125Z" fill="white"/>
</svg>
