<svg width="21" height="20" viewBox="0 0 21 20" fill="none" xmlns="http://www.w3.org/2000/svg">
<path d="M3.23756 20H10.9795C11.5784 20 12.1527 19.7621 12.5762 19.3386C12.9997 18.9151 13.2376 18.3408 13.2376 17.7419V12.5806C13.2376 11.9818 12.9997 11.4074 12.5762 10.9839C12.1527 10.5605 11.5784 10.3226 10.9795 10.3226H8.36659L7.10852 9.04837C6.89691 8.83677 6.64535 8.66934 6.36846 8.55581C6.09157 8.44228 5.79487 8.38493 5.49562 8.38708H3.23756C2.63868 8.38708 2.06433 8.62498 1.64086 9.04845C1.21739 9.47192 0.979492 10.0463 0.979492 10.6451V17.7419C0.979492 18.3408 1.21739 18.9151 1.64086 19.3386C2.06433 19.7621 2.63868 20 3.23756 20ZM2.91498 10.6451C2.91498 10.5596 2.94896 10.4775 3.00946 10.417C3.06995 10.3566 3.152 10.3226 3.23756 10.3226H5.49562C5.53807 10.3223 5.58016 10.3305 5.61946 10.3465C5.65876 10.3626 5.69451 10.3862 5.72465 10.4161L7.46981 12.1613C7.49996 12.1912 7.5357 12.2148 7.57501 12.2309C7.61431 12.2469 7.65639 12.2551 7.69885 12.2548H10.9795C11.065 12.2548 11.1471 12.2888 11.2076 12.3493C11.2681 12.4098 11.3021 12.4919 11.3021 12.5774V17.7419C11.3021 17.8275 11.2681 17.9095 11.2076 17.97C11.1471 18.0305 11.065 18.0645 10.9795 18.0645H3.23756C3.152 18.0645 3.06995 18.0305 3.00946 17.97C2.94896 17.9095 2.91498 17.8275 2.91498 17.7419V10.6451Z" fill="white"/>
<path d="M17.4315 16.4516H16.7863C16.5297 16.4516 16.2835 16.5536 16.102 16.7351C15.9205 16.9165 15.8186 17.1627 15.8186 17.4194C15.8186 17.676 15.9205 17.9222 16.102 18.1037C16.2835 18.2851 16.5297 18.3871 16.7863 18.3871H17.4315C18.3726 18.3871 19.2751 18.0132 19.9406 17.3478C20.606 16.6823 20.9799 15.7798 20.9799 14.8387V3.54839C20.9799 2.6073 20.606 1.70475 19.9406 1.0393C19.2751 0.373847 18.3726 0 17.4315 0H6.14116C5.20007 0 4.29752 0.373847 3.63207 1.0393C2.96662 1.70475 2.59277 2.6073 2.59277 3.54839V4.83871C2.59277 5.09537 2.69473 5.34152 2.87622 5.52301C3.05771 5.70449 3.30385 5.80645 3.56052 5.80645C3.81718 5.80645 4.06333 5.70449 4.24481 5.52301C4.4263 5.34152 4.52826 5.09537 4.52826 4.83871V3.54839C4.52826 3.12062 4.69819 2.71037 5.00067 2.40789C5.30314 2.10541 5.71339 1.93548 6.14116 1.93548H17.4315C17.8592 1.93548 18.2695 2.10541 18.572 2.40789C18.8745 2.71037 19.0444 3.12062 19.0444 3.54839V14.8387C19.0444 15.2665 18.8745 15.6767 18.572 15.9792C18.2695 16.2817 17.8592 16.4516 17.4315 16.4516Z" fill="white"/>
</svg>
