<svg width="20" height="20" viewBox="0 0 20 20" fill="none" xmlns="http://www.w3.org/2000/svg">
<path d="M2.25806 20H10C10.5989 20 11.1732 19.7621 11.5967 19.3386C12.0202 18.9151 12.2581 18.3408 12.2581 17.7419V12.5806C12.2581 11.9818 12.0202 11.4074 11.5967 10.9839C11.1732 10.5605 10.5989 10.3226 10 10.3226H7.3871L6.12903 9.04837C5.91742 8.83677 5.66586 8.66934 5.38897 8.55581C5.11207 8.44228 4.81538 8.38493 4.51613 8.38708H2.25806C1.65919 8.38708 1.08484 8.62498 0.661372 9.04845C0.237903 9.47192 0 10.0463 0 10.6451V17.7419C0 18.3408 0.237903 18.9151 0.661372 19.3386C1.08484 19.7621 1.65919 20 2.25806 20ZM1.93548 10.6451C1.93548 10.5596 1.96947 10.4775 2.02996 10.417C2.09046 10.3566 2.17251 10.3226 2.25806 10.3226H4.51613C4.55858 10.3223 4.60067 10.3305 4.63997 10.3465C4.67927 10.3626 4.71502 10.3862 4.74516 10.4161L6.49032 12.1613C6.52046 12.1912 6.55621 12.2148 6.59551 12.2309C6.63482 12.2469 6.6769 12.2551 6.71935 12.2548H10C10.0856 12.2548 10.1676 12.2888 10.2281 12.3493C10.2886 12.4098 10.3226 12.4919 10.3226 12.5774V17.7419C10.3226 17.8275 10.2886 17.9095 10.2281 17.97C10.1676 18.0305 10.0856 18.0645 10 18.0645H2.25806C2.17251 18.0645 2.09046 18.0305 2.02996 17.97C1.96947 17.9095 1.93548 17.8275 1.93548 17.7419V10.6451Z" fill="white"/>
<path d="M16.452 16.4516H15.8068C15.5502 16.4516 15.304 16.5536 15.1225 16.7351C14.941 16.9165 14.8391 17.1627 14.8391 17.4194C14.8391 17.676 14.941 17.9222 15.1225 18.1037C15.304 18.2851 15.5502 18.3871 15.8068 18.3871H16.452C17.3931 18.3871 18.2956 18.0132 18.9611 17.3478C19.6265 16.6823 20.0004 15.7798 20.0004 14.8387V3.54839C20.0004 2.6073 19.6265 1.70475 18.9611 1.0393C18.2956 0.373847 17.3931 0 16.452 0H5.16167C4.22058 0 3.31803 0.373847 2.65258 1.0393C1.98713 1.70475 1.61328 2.6073 1.61328 3.54839V4.83871C1.61328 5.09537 1.71524 5.34152 1.89673 5.52301C2.07821 5.70449 2.32436 5.80645 2.58102 5.80645C2.83768 5.80645 3.08383 5.70449 3.26532 5.52301C3.44681 5.34152 3.54876 5.09537 3.54876 4.83871V3.54839C3.54876 3.12062 3.7187 2.71037 4.02117 2.40789C4.32365 2.10541 4.7339 1.93548 5.16167 1.93548H16.452C16.8798 1.93548 17.29 2.10541 17.5925 2.40789C17.895 2.71037 18.0649 3.12062 18.0649 3.54839V14.8387C18.0649 15.2665 17.895 15.6767 17.5925 15.9792C17.29 16.2817 16.8798 16.4516 16.452 16.4516Z" fill="white"/>
</svg>
