<svg width="22" height="24" viewBox="0 0 22 24" fill="none" xmlns="http://www.w3.org/2000/svg">
<path d="M0 20.4C0 20.8728 0.0931156 21.3409 0.274031 21.7777C0.454947 22.2144 0.720119 22.6113 1.05441 22.9456C1.3887 23.2799 1.78555 23.5451 2.22232 23.726C2.65909 23.9069 3.12722 24 3.59997 24H17.9998C18.4726 24 18.9407 23.9069 19.3775 23.726C19.8143 23.5451 20.2111 23.2799 20.5454 22.9456C20.8797 22.6113 21.1449 22.2144 21.3258 21.7777C21.5067 21.3409 21.5998 20.8728 21.5998 20.4V4.40017C21.6052 3.6604 21.3176 2.94858 20.7998 2.42018L19.1998 0.820195C18.9398 0.560163 18.6312 0.353893 18.2914 0.213163C17.9517 0.0724329 17.5876 0 17.2199 0C16.8521 0 16.488 0.0724329 16.1483 0.213163C15.8086 0.353893 15.4999 0.560163 15.2399 0.820195L13.9999 2.04019L12.7999 0.820195C12.5399 0.560163 12.2312 0.353893 11.8915 0.213163C11.5518 0.0724329 11.1876 0 10.8199 0C10.4522 0 10.0881 0.0724329 9.74834 0.213163C9.40861 0.353893 9.09993 0.560163 8.83993 0.820195L7.59994 2.04019L6.39995 0.820195C6.13994 0.560163 5.83126 0.353893 5.49153 0.213163C5.15181 0.0724329 4.78768 0 4.41996 0C4.05224 0 3.68812 0.0724329 3.34839 0.213163C3.00867 0.353893 2.69999 0.560163 2.43998 0.820195L0.839993 2.42018C0.576382 2.67855 0.366459 2.9865 0.2223 3.3263C0.0781418 3.66611 0.00259274 4.03106 0 4.40017V20.4ZM2.39998 4.23617L4.12397 2.51218C4.19836 2.44127 4.29719 2.40171 4.39996 2.40171C4.50274 2.40171 4.60157 2.44127 4.67596 2.51218L7.16394 5.00016C7.2808 5.1119 7.43625 5.17426 7.59794 5.17426C7.75962 5.17426 7.91507 5.1119 8.03193 5.00016L10.5199 2.51218C10.5943 2.44127 10.6931 2.40171 10.7959 2.40171C10.8987 2.40171 10.9975 2.44127 11.0719 2.51218L13.5599 5.00016C13.6767 5.1119 13.8322 5.17426 13.9939 5.17426C14.1556 5.17426 14.311 5.1119 14.4279 5.00016L16.9159 2.51218C16.9902 2.44127 17.0891 2.40171 17.1919 2.40171C17.2946 2.40171 17.3935 2.44127 17.4679 2.51218L19.1998 4.23617V20.4C19.1998 20.7183 19.0734 21.0235 18.8484 21.2486C18.6233 21.4736 18.3181 21.6 17.9998 21.6H3.59997C3.28171 21.6 2.97649 21.4736 2.75145 21.2486C2.52641 21.0235 2.39998 20.7183 2.39998 20.4V4.23617Z" fill="#007ACC"/>
<path d="M7.59989 11.2H13.9998C14.3181 11.2 14.6233 11.0735 14.8484 10.8485C15.0734 10.6235 15.1998 10.3182 15.1998 9.99998C15.1998 9.68172 15.0734 9.3765 14.8484 9.15146C14.6233 8.92642 14.3181 8.79999 13.9998 8.79999H7.59989C7.28164 8.79999 6.97641 8.92642 6.75137 9.15146C6.52633 9.3765 6.3999 9.68172 6.3999 9.99998C6.3999 10.3182 6.52633 10.6235 6.75137 10.8485C6.97641 11.0735 7.28164 11.2 7.59989 11.2Z" fill="#007ACC"/>
<path d="M7.59989 17.6H13.9998C14.3181 17.6 14.6233 17.4736 14.8484 17.2485C15.0734 17.0235 15.1998 16.7183 15.1998 16.4C15.1998 16.0817 15.0734 15.7765 14.8484 15.5515C14.6233 15.3264 14.3181 15.2 13.9998 15.2H7.59989C7.28164 15.2 6.97641 15.3264 6.75137 15.5515C6.52633 15.7765 6.3999 16.0817 6.3999 16.4C6.3999 16.7183 6.52633 17.0235 6.75137 17.2485C6.97641 17.4736 7.28164 17.6 7.59989 17.6Z" fill="#007ACC"/>
</svg>
